# xmcd
#
# Track frame offsets: 
#        150
#        20531
#        38617
#        58621
#        79008
#        96267
#        113797
#        128750
#        145967
#        162999
#        184594
#        198770
#
# Disc length: 2917 seconds
#
# Revision: 0
# Processed by: cddbd v1.5.2PL0 Copyright (c) Steve Scherf et al.
# Submitted via: ExactAudioCopy v0.95a5
#
DISCID=970b630c
DTITLE=Spencer Davis Group - So Far
DYEAR=2006
DGENRE=Blues
TTITLE0=So Far
TTITLE1=Comin' Home
TTITLE2=The Viper
TTITLE3=I Ain't Gonna Go
TTITLE4=The Mumbles Train
TTITLE5=I Can't Stand Still
TTITLE6=Uncle Herman's Mandolin
TTITLE7=Promises
TTITLE8=The Golden Eagle
TTITLE9=Berlin
TTITLE10=The Swansea Shuffle
TTITLE11=Mulberry Avenue
EXTD=
EXTT0=
EXTT1=
EXTT2=
EXTT3=
EXTT4=
EXTT5=
EXTT6=
EXTT7=
EXTT8=
EXTT9=
EXTT10=
EXTT11=
PLAYORDER=
